<svg xmlns="http://www.w3.org/2000/svg" width="1440" height="747" fill="none"><g opacity=".4"><mask id="c" width="1384" height="1384" x="-418" y="-292" maskUnits="userSpaceOnUse" style="mask-type:alpha"><circle cx="691.108" cy="691.108" r="691.108" fill="url(#a)" transform="matrix(0 1 1 0 -417.108 -291.108)"/></mask><g clip-path="url(#b)" mask="url(#c)" opacity=".2"><mask id="d" fill="#fff"><path d="M-55 53v86.75h86.75V53H-55z"/></mask><path fill="#fff" d="M31.027 139.75V53h1.446v86.75h-1.446z" mask="url(#d)"/><mask id="e" fill="#fff"><path d="M-55 139.75v86.75h86.75v-86.75H-55z"/></mask><path fill="#fff" d="M31.75 139.75v-.723h.723v.723h-.723zm-.723 86.75v-86.75h1.446v86.75h-1.446zm.723-86.027H-55v-1.446h86.75v1.446z" mask="url(#e)"/><mask id="f" fill="#fff"><path d="M-55 226.5v86.75h86.75V226.5H-55z"/></mask><path fill="#fff" d="M31.75 226.5v-.723h.723v.723h-.723zm-.723 86.75V226.5h1.446v86.75h-1.446zm.723-86.027H-55v-1.446h86.75v1.446z" mask="url(#f)"/><mask id="g" fill="#fff"><path d="M-55 313.25V400h86.75v-86.75H-55z"/></mask><path fill="#fff" d="M31.75 313.25v-.723h.723v.723h-.723zM31.027 400v-86.75h1.446V400h-1.446zm.723-86.027H-55v-1.446h86.75v1.446z" mask="url(#g)"/><mask id="h" fill="#fff"><path d="M-55 400v86.75h86.75V400H-55z"/></mask><path fill="#fff" d="M31.75 400v-.723h.723V400h-.723zm-.723 86.75V400h1.446v86.75h-1.446zm.723-86.027H-55v-1.446h86.75v1.446z" mask="url(#h)"/><mask id="i" fill="#fff"><path d="M-55 486.75v86.75h86.75v-86.75H-55z"/></mask><path fill="#646464" fill-opacity=".3" d="M-55 486.75v86.75h86.75v-86.75H-55z"/><path fill="#fff" d="M31.75 486.75v-.723h.723v.723h-.723zm-.723 86.75v-86.75h1.446v86.75h-1.446zm.723-86.027H-55v-1.446h86.75v1.446z" mask="url(#i)"/><mask id="j" fill="#fff"><path d="M-55 573.5v86.75h86.75V573.5H-55z"/></mask><path fill="#fff" d="M31.75 573.5v-.723h.723v.723h-.723zm-.723 86.75V573.5h1.446v86.75h-1.446zm.723-86.027H-55v-1.446h86.75v1.446z" mask="url(#j)"/><mask id="k" fill="#fff"><path d="M-55 660.25V747h86.75v-86.75H-55z"/></mask><path fill="#fff" d="M31.75 660.25v-.723h.723v.723h-.723zM31.027 747v-86.75h1.446V747h-1.446zm.723-86.027H-55v-1.446h86.75v1.446z" mask="url(#k)"/><mask id="l" fill="#fff"><path d="M31.75 53v86.75h86.75V53H31.75z"/></mask><path fill="#fff" d="M117.777 139.75V53h1.446v86.75h-1.446z" mask="url(#l)"/><mask id="m" fill="#fff"><path d="M31.75 139.75v86.75h86.75v-86.75H31.75z"/></mask><path fill="#fff" d="M118.5 139.75v-.723h.723v.723h-.723zm-.723 86.75v-86.75h1.446v86.75h-1.446zm.723-86.027H31.75v-1.446h86.75v1.446z" mask="url(#m)"/><mask id="n" fill="#fff"><path d="M31.75 226.5v86.75h86.75V226.5H31.75z"/></mask><path fill="#646464" fill-opacity=".3" d="M31.75 226.5v86.75h86.75V226.5H31.75z"/><path fill="#fff" d="M118.5 226.5v-.723h.723v.723h-.723zm-.723 86.75V226.5h1.446v86.75h-1.446zm.723-86.027H31.75v-1.446h86.75v1.446z" mask="url(#n)"/><mask id="o" fill="#fff"><path d="M31.75 313.25V400h86.75v-86.75H31.75z"/></mask><path fill="#fff" d="M118.5 313.25v-.723h.723v.723h-.723zm-.723 86.75v-86.75h1.446V400h-1.446zm.723-86.027H31.75v-1.446h86.75v1.446z" mask="url(#o)"/><mask id="p" fill="#fff"><path d="M31.75 400v86.75h86.75V400H31.75z"/></mask><path fill="#fff" d="M118.5 400v-.723h.723V400h-.723zm-.723 86.75V400h1.446v86.75h-1.446zm.723-86.027H31.75v-1.446h86.75v1.446z" mask="url(#p)"/><mask id="q" fill="#fff"><path d="M31.75 486.75v86.75h86.75v-86.75H31.75z"/></mask><path fill="#fff" d="M118.5 486.75v-.723h.723v.723h-.723zm-.723 86.75v-86.75h1.446v86.75h-1.446zm.723-86.027H31.75v-1.446h86.75v1.446z" mask="url(#q)"/><mask id="r" fill="#fff"><path d="M31.75 573.5v86.75h86.75V573.5H31.75z"/></mask><path fill="#fff" d="M118.5 573.5v-.723h.723v.723h-.723zm-.723 86.75V573.5h1.446v86.75h-1.446zm.723-86.027H31.75v-1.446h86.75v1.446z" mask="url(#r)"/><mask id="s" fill="#fff"><path d="M31.75 660.25V747h86.75v-86.75H31.75z"/></mask><path fill="#fff" d="M118.5 660.25v-.723h.723v.723h-.723zm-.723 86.75v-86.75h1.446V747h-1.446zm.723-86.027H31.75v-1.446h86.75v1.446z" mask="url(#s)"/><mask id="t" fill="#fff"><path d="M118.5 53v86.75h86.75V53H118.5z"/></mask><path fill="#fff" d="M204.527 139.75V53h1.446v86.75h-1.446z" mask="url(#t)"/><mask id="u" fill="#fff"><path d="M118.5 139.75v86.75h86.75v-86.75H118.5z"/></mask><path fill="#fff" d="M205.25 139.75v-.723h.723v.723h-.723zm-.723 86.75v-86.75h1.446v86.75h-1.446zm.723-86.027H118.5v-1.446h86.75v1.446z" mask="url(#u)"/><mask id="v" fill="#fff"><path d="M118.5 226.5v86.75h86.75V226.5H118.5z"/></mask><path fill="#fff" d="M205.25 226.5v-.723h.723v.723h-.723zm-.723 86.75V226.5h1.446v86.75h-1.446zm.723-86.027H118.5v-1.446h86.75v1.446z" mask="url(#v)"/><mask id="w" fill="#fff"><path d="M118.5 313.25V400h86.75v-86.75H118.5z"/></mask><path fill="#fff" d="M205.25 313.25v-.723h.723v.723h-.723zm-.723 86.75v-86.75h1.446V400h-1.446zm.723-86.027H118.5v-1.446h86.75v1.446z" mask="url(#w)"/><mask id="x" fill="#fff"><path d="M118.5 400v86.75h86.75V400H118.5z"/></mask><path fill="#fff" d="M205.25 400v-.723h.723V400h-.723zm-.723 86.75V400h1.446v86.75h-1.446zm.723-86.027H118.5v-1.446h86.75v1.446z" mask="url(#x)"/><mask id="y" fill="#fff"><path d="M118.5 486.75v86.75h86.75v-86.75H118.5z"/></mask><path fill="#646464" fill-opacity=".3" d="M118.5 486.75v86.75h86.75v-86.75H118.5z"/><path fill="#fff" d="M205.25 486.75v-.723h.723v.723h-.723zm-.723 86.75v-86.75h1.446v86.75h-1.446zm.723-86.027H118.5v-1.446h86.75v1.446z" mask="url(#y)"/><mask id="z" fill="#fff"><path d="M118.5 573.5v86.75h86.75V573.5H118.5z"/></mask><path fill="#fff" d="M205.25 573.5v-.723h.723v.723h-.723zm-.723 86.75V573.5h1.446v86.75h-1.446zm.723-86.027H118.5v-1.446h86.75v1.446z" mask="url(#z)"/><mask id="A" fill="#fff"><path d="M118.5 660.25v588h588v-588h-588z"/></mask><path fill="#fff" d="M706.5 660.25v-.723h.723v.723h-.723zm-.723 588v-588h1.446v588h-1.446zm.723-587.277h-588v-1.446h588v1.446z" mask="url(#A)"/><mask id="B" fill="#fff"><path d="M205.25 53v86.75H292V53h-86.75z"/></mask><path fill="#646464" fill-opacity=".3" d="M205.25 53v86.75H292V53h-86.75z"/><path fill="#fff" d="M291.277 139.75V53h1.446v86.75h-1.446z" mask="url(#B)"/><mask id="C" fill="#fff"><path d="M205.25 139.75v86.75H292v-86.75h-86.75z"/></mask><path fill="#fff" d="M292 139.75v-.723h.723v.723H292zm-.723 86.75v-86.75h1.446v86.75h-1.446zm.723-86.027h-86.75v-1.446H292v1.446z" mask="url(#C)"/><mask id="D" fill="#fff"><path d="M205.25 226.5v86.75H292V226.5h-86.75z"/></mask><path fill="#fff" d="M292 226.5v-.723h.723v.723H292zm-.723 86.75V226.5h1.446v86.75h-1.446zm.723-86.027h-86.75v-1.446H292v1.446z" mask="url(#D)"/><mask id="E" fill="#fff"><path d="M205.25 313.25V400H292v-86.75h-86.75z"/></mask><path fill="#646464" fill-opacity=".3" d="M205.25 313.25V400H292v-86.75h-86.75z"/><path fill="#fff" d="M292 313.25v-.723h.723v.723H292zm-.723 86.75v-86.75h1.446V400h-1.446zm.723-86.027h-86.75v-1.446H292v1.446z" mask="url(#E)"/><mask id="F" fill="#fff"><path d="M205.25 400v86.75H292V400h-86.75z"/></mask><path fill="#fff" d="M292 400v-.723h.723V400H292zm-.723 86.75V400h1.446v86.75h-1.446zm.723-86.027h-86.75v-1.446H292v1.446z" mask="url(#F)"/><mask id="G" fill="#fff"><path d="M205.25 486.75v86.75H292v-86.75h-86.75z"/></mask><path fill="#fff" d="M292 486.75v-.723h.723v.723H292zm-.723 86.75v-86.75h1.446v86.75h-1.446zm.723-86.027h-86.75v-1.446H292v1.446z" mask="url(#G)"/><mask id="H" fill="#fff"><path d="M205.25 573.5v86.75H292V573.5h-86.75z"/></mask><path fill="#fff" d="M292 573.5v-.723h.723v.723H292zm-.723 86.75V573.5h1.446v86.75h-1.446zm.723-86.027h-86.75v-1.446H292v1.446z" mask="url(#H)"/><mask id="I" fill="#fff"><path d="M205.25 660.25V747H292v-86.75h-86.75z"/></mask><path fill="#fff" d="M292 660.25v-.723h.723v.723H292zm-.723 86.75v-86.75h1.446V747h-1.446zm.723-86.027h-86.75v-1.446H292v1.446z" mask="url(#I)"/><mask id="J" fill="#fff"><path d="M292 53v86.75h86.75V53H292z"/></mask><path fill="#fff" d="M378.027 139.75V53h1.446v86.75h-1.446z" mask="url(#J)"/><mask id="K" fill="#fff"><path d="M292 139.75v86.75h86.75v-86.75H292z"/></mask><path fill="#646464" fill-opacity=".3" d="M292 139.75v86.75h86.75v-86.75H292z"/><path fill="#fff" d="M378.75 139.75v-.723h.723v.723h-.723zm-.723 86.75v-86.75h1.446v86.75h-1.446zm.723-86.027H292v-1.446h86.75v1.446z" mask="url(#K)"/><mask id="L" fill="#fff"><path d="M292 226.5v86.75h86.75V226.5H292z"/></mask><path fill="#fff" d="M378.75 226.5v-.723h.723v.723h-.723zm-.723 86.75V226.5h1.446v86.75h-1.446zm.723-86.027H292v-1.446h86.75v1.446z" mask="url(#L)"/><mask id="M" fill="#fff"><path d="M292 313.25V400h86.75v-86.75H292z"/></mask><path fill="#fff" d="M378.75 313.25v-.723h.723v.723h-.723zm-.723 86.75v-86.75h1.446V400h-1.446zm.723-86.027H292v-1.446h86.75v1.446z" mask="url(#M)"/><mask id="N" fill="#fff"><path d="M292 400v86.75h86.75V400H292z"/></mask><path fill="#fff" d="M378.75 400v-.723h.723V400h-.723zm-.723 86.75V400h1.446v86.75h-1.446zm.723-86.027H292v-1.446h86.75v1.446z" mask="url(#N)"/><mask id="O" fill="#fff"><path d="M292 486.75v86.75h86.75v-86.75H292z"/></mask><path fill="#fff" d="M378.75 486.75v-.723h.723v.723h-.723zm-.723 86.75v-86.75h1.446v86.75h-1.446zm.723-86.027H292v-1.446h86.75v1.446z" mask="url(#O)"/><mask id="P" fill="#fff"><path d="M292 573.5v86.75h86.75V573.5H292z"/></mask><path fill="#646464" fill-opacity=".3" d="M292 573.5v86.75h86.75V573.5H292z"/><path fill="#fff" d="M378.75 573.5v-.723h.723v.723h-.723zm-.723 86.75V573.5h1.446v86.75h-1.446zm.723-86.027H292v-1.446h86.75v1.446z" mask="url(#P)"/><mask id="Q" fill="#fff"><path d="M292 660.25V747h86.75v-86.75H292z"/></mask><path fill="#fff" d="M378.75 660.25v-.723h.723v.723h-.723zm-.723 86.75v-86.75h1.446V747h-1.446zm.723-86.027H292v-1.446h86.75v1.446z" mask="url(#Q)"/><mask id="R" fill="#fff"><path d="M378.75 53v86.75h86.75V53h-86.75z"/></mask><path fill="#fff" d="M464.777 139.75V53h1.446v86.75h-1.446z" mask="url(#R)"/><mask id="S" fill="#fff"><path d="M378.75 139.75v86.75h86.75v-86.75h-86.75z"/></mask><path fill="#fff" d="M465.5 139.75v-.723h.723v.723h-.723zm-.723 86.75v-86.75h1.446v86.75h-1.446zm.723-86.027h-86.75v-1.446h86.75v1.446z" mask="url(#S)"/><mask id="T" fill="#fff"><path d="M378.75 226.5v86.75h86.75V226.5h-86.75z"/></mask><path fill="#fff" d="M465.5 226.5v-.723h.723v.723h-.723zm-.723 86.75V226.5h1.446v86.75h-1.446zm.723-86.027h-86.75v-1.446h86.75v1.446z" mask="url(#T)"/><mask id="U" fill="#fff"><path d="M378.75 313.25V400h86.75v-86.75h-86.75z"/></mask><path fill="#fff" d="M465.5 313.25v-.723h.723v.723h-.723zm-.723 86.75v-86.75h1.446V400h-1.446zm.723-86.027h-86.75v-1.446h86.75v1.446z" mask="url(#U)"/><mask id="V" fill="#fff"><path d="M378.75 400v86.75h86.75V400h-86.75z"/></mask><path fill="#646464" fill-opacity=".3" d="M378.75 400v86.75h86.75V400h-86.75z"/><path fill="#fff" d="M465.5 400v-.723h.723V400h-.723zm-.723 86.75V400h1.446v86.75h-1.446zm.723-86.027h-86.75v-1.446h86.75v1.446z" mask="url(#V)"/><mask id="W" fill="#fff"><path d="M378.75 486.75v86.75h86.75v-86.75h-86.75z"/></mask><path fill="#fff" d="M465.5 486.75v-.723h.723v.723h-.723zm-.723 86.75v-86.75h1.446v86.75h-1.446zm.723-86.027h-86.75v-1.446h86.75v1.446z" mask="url(#W)"/><mask id="X" fill="#fff"><path d="M378.75 573.5v86.75h86.75V573.5h-86.75z"/></mask><path fill="#fff" d="M465.5 573.5v-.723h.723v.723h-.723zm-.723 86.75V573.5h1.446v86.75h-1.446zm.723-86.027h-86.75v-1.446h86.75v1.446z" mask="url(#X)"/><mask id="Y" fill="#fff"><path d="M378.75 660.25V747h86.75v-86.75h-86.75z"/></mask><path fill="#fff" d="M465.5 660.25v-.723h.723v.723h-.723zm-.723 86.75v-86.75h1.446V747h-1.446zm.723-86.027h-86.75v-1.446h86.75v1.446z" mask="url(#Y)"/><mask id="Z" fill="#fff"><path d="M465.5 53v86.75h86.75V53H465.5z"/></mask><path fill="#fff" d="M551.527 139.75V53h1.446v86.75h-1.446z" mask="url(#Z)"/><mask id="aa" fill="#fff"><path d="M465.5 139.75v86.75h86.75v-86.75H465.5z"/></mask><path fill="#fff" d="M552.25 139.75v-.723h.723v.723h-.723zm-.723 86.75v-86.75h1.446v86.75h-1.446zm.723-86.027H465.5v-1.446h86.75v1.446z" mask="url(#aa)"/><mask id="ab" fill="#fff"><path d="M465.5 226.5v86.75h86.75V226.5H465.5z"/></mask><path fill="#fff" d="M552.25 226.5v-.723h.723v.723h-.723zm-.723 86.75V226.5h1.446v86.75h-1.446zm.723-86.027H465.5v-1.446h86.75v1.446z" mask="url(#ab)"/><mask id="ac" fill="#fff"><path d="M465.5 313.25V400h86.75v-86.75H465.5z"/></mask><path fill="#646464" fill-opacity=".3" d="M465.5 313.25V400h86.75v-86.75H465.5z"/><path fill="#fff" d="M552.25 313.25v-.723h.723v.723h-.723zm-.723 86.75v-86.75h1.446V400h-1.446zm.723-86.027H465.5v-1.446h86.75v1.446z" mask="url(#ac)"/><mask id="ad" fill="#fff"><path d="M465.5 400v86.75h86.75V400H465.5z"/></mask><path fill="#fff" d="M552.25 400v-.723h.723V400h-.723zm-.723 86.75V400h1.446v86.75h-1.446zm.723-86.027H465.5v-1.446h86.75v1.446z" mask="url(#ad)"/><mask id="ae" fill="#fff"><path d="M465.5 486.75v86.75h86.75v-86.75H465.5z"/></mask><path fill="#fff" d="M552.25 486.75v-.723h.723v.723h-.723zm-.723 86.75v-86.75h1.446v86.75h-1.446zm.723-86.027H465.5v-1.446h86.75v1.446z" mask="url(#ae)"/><mask id="af" fill="#fff"><path d="M465.5 573.5v86.75h86.75V573.5H465.5z"/></mask><path fill="#fff" d="M552.25 573.5v-.723h.723v.723h-.723zm-.723 86.75V573.5h1.446v86.75h-1.446zm.723-86.027H465.5v-1.446h86.75v1.446z" mask="url(#af)"/><mask id="ag" fill="#fff"><path d="M552.25 139.75v86.75H639v-86.75h-86.75z"/></mask><path fill="#fff" d="M639 140.473h-86.75v-1.446H639v1.446z" mask="url(#ag)"/><mask id="ah" fill="#fff"><path d="M552.25 226.5v86.75H639V226.5h-86.75z"/></mask><path fill="#fff" d="M639 227.223h-86.75v-1.446H639v1.446z" mask="url(#ah)"/><mask id="ai" fill="#fff"><path d="M552.25 313.25V400H639v-86.75h-86.75z"/></mask><path fill="#fff" d="M639 313.973h-86.75v-1.446H639v1.446z" mask="url(#ai)"/><mask id="aj" fill="#fff"><path d="M552.25 400v86.75H639V400h-86.75z"/></mask><path fill="#fff" d="M639 400.723h-86.75v-1.446H639v1.446z" mask="url(#aj)"/><mask id="ak" fill="#fff"><path d="M552.25 486.75v86.75H639v-86.75h-86.75z"/></mask><path fill="#fff" d="M639 487.473h-86.75v-1.446H639v1.446z" mask="url(#ak)"/><mask id="al" fill="#fff"><path d="M552.25 573.5v86.75H639V573.5h-86.75z"/></mask><path fill="#fff" d="M639 574.223h-86.75v-1.446H639v1.446z" mask="url(#al)"/><mask id="am" fill="#fff"><path d="M552.25 660.25V747H639v-86.75h-86.75z"/></mask><path fill="#fff" d="M639 660.973h-86.75v-1.446H639v1.446z" mask="url(#am)"/></g></g><defs><radialGradient id="a" cx="0" cy="0" r="1" gradientTransform="rotate(90 0 691.108) scale(691.108)" gradientUnits="userSpaceOnUse"><stop stop-color="#080809"/><stop offset=".503" stop-color="#060F11" stop-opacity="0"/></radialGradient><clipPath id="b"><path fill="#fff" d="M-55 53v694h694V53z"/></clipPath></defs></svg>